<svg width="15" height="12" viewBox="0 0 15 12" fill="none" xmlns="http://www.w3.org/2000/svg">
<path d="M13.575 3.62416L12.525 4.83222C13.125 5.47651 13.5 6.28188 13.5 7.16779C13.5 8.9396 12.15 10.3893 10.5 10.3893H4.5C2.85 10.3893 1.5 8.9396 1.5 7.16779C1.5 5.39597 2.85 3.94631 4.5 3.94631H9.15L8.025 5.15436L9.075 6.28188L12 3.14094L9.075 0L8.025 1.12752L9.15 2.33557H4.5C2.025 2.33557 0 4.51007 0 7.16779C0 9.8255 2.025 12 4.5 12H10.5C12.975 12 15 9.8255 15 7.16779C15 5.79866 14.475 4.51007 13.575 3.62416Z" fill="#FAFAFA"/>
</svg>
