<svg width="16" height="10" viewBox="0 0 16 10" fill="none" xmlns="http://www.w3.org/2000/svg">
<path d="M15.6478 0.747837C15.4222 0.522333 15.1163 0.395653 14.7974 0.395653C14.4784 0.395653 14.1725 0.522333 13.947 0.747837L7.99274 6.70205L2.03852 0.747837C1.81166 0.528725 1.50781 0.407482 1.19242 0.410222C0.87703 0.412963 0.575334 0.539468 0.352312 0.762489C0.12929 0.985512 0.00278578 1.28721 4.58718e-05 1.6026C-0.00269499 1.91799 0.118548 2.22183 0.33766 2.4487L7.14231 9.25335C7.36788 9.47885 7.67378 9.60553 7.99274 9.60553C8.3117 9.60553 8.6176 9.47885 8.84317 9.25335L15.6478 2.4487C15.8733 2.22313 16 1.91723 16 1.59827C16 1.27931 15.8733 0.973409 15.6478 0.747837Z" fill="white"/>
</svg>
