<svg width="22" height="20" viewBox="0 0 22 20" fill="none" xmlns="http://www.w3.org/2000/svg">
<path d="M20.9266 11.6141H16.9539V9.53594C16.9539 9.49219 16.9651 9.45391 16.9651 9.41016C18.985 9.20234 20.1432 7.90625 20.1432 5.77344V5.28125C20.1432 4.98047 19.8914 4.73438 19.5837 4.73438C19.276 4.73438 19.0242 4.98047 19.0242 5.28125V5.77344C19.0242 7.34844 18.308 8.18516 16.8476 8.32188C16.5902 7.21172 15.9691 6.25469 14.934 6.03594C14.7773 4.86563 14.0331 3.87578 12.998 3.36172C13.4288 2.92969 13.7086 2.33906 13.7086 1.68828V1.20703C13.7086 0.90625 13.4568 0.660156 13.1491 0.660156C12.8413 0.660156 12.5895 0.90625 12.5895 1.20703V1.69375C12.5895 2.40469 11.9852 2.97344 11.2522 2.97344H10.2842C9.55684 2.97344 8.94695 2.41016 8.94695 1.69375V1.20703C8.94695 0.90625 8.69516 0.660156 8.38742 0.660156C8.07967 0.660156 7.82788 0.90625 7.82788 1.20703V1.69375C7.82788 2.34453 8.10205 2.93516 8.53849 3.36719C7.50335 3.88125 6.75917 4.87109 6.6025 6.04141C5.56736 6.26016 4.94628 7.22266 4.69449 8.33281C3.18934 8.20703 2.46195 7.37031 2.46195 5.77344V5.28125C2.46195 4.98047 2.21016 4.73438 1.90242 4.73438C1.59467 4.73438 1.34288 4.98047 1.34288 5.28125V5.77344C1.34288 7.92266 2.49552 9.22422 4.54901 9.41563C4.54901 9.45391 4.53223 9.49766 4.53223 9.53594V11.6141H0.559534C0.25179 11.6141 0 11.8602 0 12.1609C0 12.4617 0.25179 12.7078 0.559534 12.7078H4.53223V13.6539C4.53223 14.0914 4.59377 14.5125 4.6833 14.9227C2.54588 15.0594 1.34288 16.3719 1.34288 18.5703V19.0625C1.34288 19.3633 1.59467 19.6094 1.90242 19.6094C2.21016 19.6094 2.46195 19.3633 2.46195 19.0625V18.5703C2.46195 16.8586 3.30685 16.0164 5.047 16C5.98701 18.182 8.20277 19.7188 10.771 19.7188C13.3449 19.7188 15.555 18.182 16.4951 16C18.196 16.0328 19.0242 16.875 19.0242 18.5703V19.0625C19.0242 19.3633 19.276 19.6094 19.5837 19.6094C19.8914 19.6094 20.1432 19.3633 20.1432 19.0625V18.5703C20.1432 16.3938 18.9346 15.0812 16.8308 14.9227C16.9203 14.5125 16.9539 14.0859 16.9539 13.6484V12.7023H20.9266C21.2343 12.7023 21.4861 12.4563 21.4861 12.1555C21.4861 11.8547 21.2343 11.6141 20.9266 11.6141ZM10.1835 18.5922C7.64883 18.3078 5.65129 16.1969 5.65129 13.6484V9.53047C5.65129 8.67734 5.94225 7.45781 6.68084 7.15156C6.9606 7.90625 7.71038 8.43672 8.57766 8.43672H10.1835V18.5922ZM8.57206 7.34844C8.08527 7.34844 7.688 6.96016 7.688 6.48438C7.688 5.15 8.80147 4.06172 10.1667 4.06172H11.3697C12.735 4.06172 13.8485 5.15 13.8485 6.48438C13.8485 6.96016 13.4512 7.34844 12.9644 7.34844H8.57206ZM15.8348 13.6484C15.8348 16.2188 13.8597 18.3352 11.3026 18.5977V8.44219H12.97C13.8373 8.44219 14.5591 7.90625 14.8388 7.15703C15.5774 7.46328 15.8404 8.68281 15.8404 9.53594V13.6484H15.8348Z" fill="#284FA7"/>
</svg>
