<svg width="16" height="14" viewBox="0 0 16 14" fill="none" xmlns="http://www.w3.org/2000/svg">
<path d="M15.9 3.1H13.1V0.5H12.5V3.1H9.8V3.9H12.5V6.5H13.1V3.9H15.9V3.1Z" fill="white"/>
<path d="M6.8 8.2C6.4 8 5.7 7.3 5.7 6.9C5.7 6.5 5.8 6.2 6.5 5.7C7.2 5.2 7.7 4.5 7.7 3.6C7.7 2.5 7.2 1.5 6.4 1.2H7.7L8.6 0.5H4.4C2.5 0.5 0.8 1.9 0.8 3.6C0.8 5.3 2.1 6.6 4 6.6H4.4C4.2 6.8 4.2 7 4.2 7.3C4.2 7.8 4.5 8.1 4.8 8.5H4.1C1.8 8.5 0 10 0 11.5C0 13 2 14 4.3 14C6.9 14 8.4 12.5 8.4 11C8.3 9.7 7.9 9 6.8 8.2ZM4.6 6.1C3.5 6.1 2.5 4.9 2.3 3.5C2.1 2.1 2.8 1 3.9 1C5 1 6 2.2 6.2 3.6C6.4 5 5.7 6.2 4.6 6.1ZM4.2 13.3C2.6 13.3 1.4 12.3 1.4 11.1C1.4 9.9 2.8 8.9 4.4 8.9C4.8 8.9 5.1 9 5.4 9.1C6.3 9.7 6.9 10 7.1 10.7C7.1 10.8 7.2 11 7.2 11.1C7.2 12.3 6.4 13.3 4.2 13.3Z" fill="white"/>
</svg>
