<svg width="17" height="16" viewBox="0 0 17 16" fill="none" xmlns="http://www.w3.org/2000/svg">
<path d="M3.79979 16V5.20483H0.211696V16H3.79979ZM2.00621 3.73004C3.25744 3.73004 4.03627 2.9011 4.03627 1.8652C4.01296 0.805935 3.25748 0 2.02995 0C0.802607 0 0 0.805951 0 1.8652C0 2.90115 0.778639 3.73004 1.98278 3.73004H2.00609H2.00621ZM5.78579 16H9.37388V9.97145C9.37388 9.64881 9.39719 9.3265 9.49194 9.09586C9.75133 8.45124 10.3417 7.78359 11.3329 7.78359C12.6313 7.78359 13.1507 8.77354 13.1507 10.2247V15.9999H16.7386V9.81007C16.7386 6.49422 14.9684 4.95139 12.6077 4.95139C10.672 4.95139 9.82215 6.03334 9.35001 6.77025H9.37396V5.2046H5.78587C5.83295 6.21756 5.78587 15.9998 5.78587 15.9998L5.78579 16Z" fill="white"/>
</svg>
