<svg width="17" height="17" viewBox="0 0 17 17" fill="none" xmlns="http://www.w3.org/2000/svg">
<path d="M3.79979 16.5V5.70483H0.211696V16.5H3.79979ZM2.00621 4.23004C3.25744 4.23004 4.03627 3.4011 4.03627 2.3652C4.01296 1.30594 3.25748 0.5 2.02995 0.5C0.802607 0.5 0 1.30595 0 2.3652C0 3.40115 0.778639 4.23004 1.98278 4.23004H2.00609H2.00621ZM5.78579 16.5H9.37388V10.4714C9.37388 10.1488 9.39719 9.8265 9.49194 9.59586C9.75133 8.95124 10.3417 8.28359 11.3329 8.28359C12.6313 8.28359 13.1507 9.27354 13.1507 10.7247V16.4999H16.7386V10.3101C16.7386 6.99422 14.9684 5.45139 12.6077 5.45139C10.672 5.45139 9.82215 6.53334 9.35001 7.27025H9.37396V5.7046H5.78587C5.83295 6.71756 5.78587 16.4998 5.78587 16.4998L5.78579 16.5Z" fill="white"/>
</svg>
