<svg width="18" height="17" viewBox="0 0 18 17" fill="none" xmlns="http://www.w3.org/2000/svg">
<path d="M10.4636 6.72875C10.0876 6.36126 9.65638 6.07025 9.19059 5.85201C8.90283 6.13476 8.74322 6.51126 8.74322 6.91025C8.74322 7.07 8.77391 7.2215 8.82149 7.36625C9.02024 7.487 9.20901 7.6235 9.37859 7.78925C9.95795 8.35625 10.2779 9.10925 10.2779 9.91025C10.2779 10.7113 9.95872 11.465 9.37936 12.032L7.07728 14.2813C5.91703 15.4153 3.8958 15.4153 2.73632 14.2813C2.15619 13.7143 1.83697 12.9613 1.83697 12.1603C1.83697 11.3593 2.15619 10.6063 2.73555 10.0393L4.35008 8.46125C4.21425 7.961 4.13905 7.442 4.13905 6.91025C4.13905 6.78875 4.14903 6.668 4.1567 6.54801C4.08841 6.60725 4.01858 6.66501 3.95258 6.72875L1.6505 8.97875C0.781079 9.8285 0.302246 10.958 0.302246 12.1603C0.302246 13.3625 0.781079 14.492 1.6505 15.3418C2.52069 16.1923 3.67633 16.6603 4.90641 16.6603C6.13649 16.6603 7.29214 16.1923 8.16233 15.3418L10.4644 13.0925C11.3331 12.242 11.8127 11.1125 11.8127 9.91025C11.8127 8.708 11.3331 7.5785 10.4636 6.72875Z" fill="#284FA7"/>
<path d="M15.8359 1.47866C14.9657 0.628156 13.81 0.160156 12.58 0.160156C11.3499 0.160156 10.1942 0.628156 9.32405 1.47866L7.02197 3.72791C6.15332 4.57841 5.67372 5.70791 5.67372 6.91016C5.67372 8.11241 6.15255 9.24191 7.02197 10.0917C7.39798 10.4592 7.82924 10.7502 8.29502 10.9684C8.58355 10.6857 8.74316 10.3092 8.74316 9.91016C8.74316 9.74666 8.7117 9.59141 8.66182 9.44366C8.46384 9.32741 8.27584 9.19466 8.10855 9.03116C7.52843 8.46416 7.20844 7.71116 7.20844 6.91016C7.20844 6.10916 7.52766 5.35541 8.10702 4.78841L10.4091 2.53916C10.9892 1.97216 11.7604 1.66016 12.58 1.66016C13.3995 1.66016 14.1707 1.97216 14.7508 2.53916C15.3302 3.10616 15.6494 3.85916 15.6494 4.66016C15.6494 5.46116 15.3302 6.21416 14.7508 6.78116L13.134 8.36141C13.2706 8.86091 13.3473 9.37916 13.3473 9.91016C13.3473 10.0317 13.3381 10.1517 13.3312 10.2717C13.3995 10.2124 13.4693 10.1554 13.5346 10.0917L15.8366 7.84166C16.7053 6.99191 17.1841 5.86241 17.1841 4.66016C17.1841 3.45791 16.7053 2.32841 15.8359 1.47866Z" fill="#284FA7"/>
</svg>
