<svg width="167" height="40" viewBox="0 0 167 40" fill="none" xmlns="http://www.w3.org/2000/svg">
<g clip-path="url(#clip0_3_718)">
<path d="M49.0983 21.5752L46.4277 12.9631H49.8116L50.7251 17.7737L51.7168 12.9631H55.0485L52.3779 21.3403V27.2035H49.0983V21.5752Z" fill="white"/>
<path d="M65.1916 27.2034L63.4692 20.9488L65.1394 15.8164H68.2797L66.4964 20.8097L68.3319 27.2034H65.1916ZM60.3115 12.9631H63.3735V27.2034H60.3115V12.9631Z" fill="white"/>
<path d="M69.2192 27.2034V12.9631H72.2812V16.869C72.5712 16.4166 72.8872 16.089 73.2294 15.886C73.5716 15.6831 74.0094 15.5816 74.543 15.5816C75.2562 15.5816 75.8043 15.8078 76.1871 16.26C76.5525 16.7124 76.7351 17.3011 76.7351 18.026V27.2034H73.6731V19.4177C73.6731 19.0467 73.6498 18.8146 73.6035 18.7218C73.4933 18.4609 73.2845 18.3304 72.9772 18.3304C72.6929 18.3304 72.4929 18.4783 72.377 18.7741C72.3131 18.9772 72.2812 19.1916 72.2812 19.4177V27.2034H69.2192Z" fill="white"/>
<path d="M81.1889 18.6175V24.4024C81.1889 24.698 81.215 24.9011 81.2672 25.0112C81.3599 25.2259 81.5658 25.3331 81.885 25.3331C82.1691 25.3331 82.3715 25.2317 82.494 25.0286C82.5519 24.8721 82.5805 24.6633 82.5805 24.4024V18.6175C82.5805 18.3162 82.5576 18.1131 82.5111 18.0086C82.4181 17.7941 82.2099 17.6867 81.885 17.6867C81.5774 17.6867 81.389 17.7709 81.3194 17.939C81.2323 18.1015 81.1889 18.3277 81.1889 18.6175ZM78.127 24.1935V18.8263C78.127 17.9855 78.3704 17.2779 78.8576 16.7037C79.5013 15.9557 80.5104 15.5815 81.885 15.5815C83.2074 15.5815 84.2164 15.9557 84.9119 16.7037C85.3993 17.2664 85.6425 17.9738 85.6425 18.8263V24.1935C85.6425 25.0345 85.3993 25.7392 84.9119 26.3074C84.2744 27.0555 83.2646 27.4296 81.885 27.4296C80.5683 27.4296 79.5592 27.0555 78.8576 26.3074C78.3704 25.7507 78.127 25.046 78.127 24.1935Z" fill="white"/>
<path d="M91.5925 24.5501V21.4793L90.7403 22.1057C90.386 22.3784 90.2097 22.7176 90.2097 23.1235V24.6371C90.2097 25.2404 90.4325 25.5418 90.8791 25.5418C91.0938 25.5418 91.2734 25.4548 91.4187 25.2808C91.5346 25.0664 91.5925 24.8228 91.5925 24.5501ZM94.5501 19.148V27.2033H91.7403V26.3247C91.2072 27.0612 90.4709 27.4295 89.5313 27.4295C88.5215 27.4295 87.826 27.0815 87.4432 26.3856C87.1705 25.8695 87.0342 25.0605 87.0342 23.9587C87.0342 22.9961 87.2783 22.2362 87.7648 21.6795C88.1076 21.2736 88.635 20.9169 89.3485 20.6095C90.253 20.2558 90.7721 20.018 90.9052 19.8962C91.364 19.5888 91.5925 19.1685 91.5925 18.6348C91.5925 18.3333 91.546 18.1014 91.4538 17.9389C91.3493 17.7708 91.1574 17.6867 90.8791 17.6867C90.3574 17.6867 90.0962 17.9477 90.0962 18.4695V19.4003H87.2521V18.3652C87.2521 17.5474 87.5885 16.8776 88.2611 16.3557C88.9395 15.8396 89.8007 15.5815 90.8448 15.5815C92.2015 15.5815 93.1583 15.8628 93.715 16.4253C94.2717 16.982 94.5501 17.8898 94.5501 19.148Z" fill="white"/>
<path d="M100.396 27.2034V12.9631H103.98L106.616 21.3577L106.651 12.9631H109.826V27.2034H106.26L103.606 18.4L103.572 27.2034H100.396Z" fill="white"/>
<path d="M114.306 18.7393V23.054C114.306 23.3266 114.361 23.5324 114.471 23.6717C114.576 23.7819 114.729 23.8543 114.932 23.8891C115.158 23.8891 115.349 23.7586 115.506 23.4976C115.634 23.2019 115.698 22.7901 115.698 22.2624V19.3047C115.698 18.8234 115.62 18.4695 115.463 18.2434C115.312 18.0172 115.136 17.9042 114.932 17.9042C114.753 17.9042 114.616 17.9507 114.523 18.0433C114.378 18.1884 114.306 18.4205 114.306 18.7393ZM118.76 15.8164V25.8637C118.76 27.1107 118.469 27.9891 117.89 28.4995C117.298 29.0098 116.347 29.2651 115.037 29.2651C114.091 29.2651 113.302 29.1055 112.67 28.7866C111.957 28.4212 111.536 27.7745 111.409 26.8467H114.367C114.367 27.0846 114.425 27.2613 114.54 27.3773C114.645 27.5107 114.811 27.5775 115.037 27.5775C115.489 27.5775 115.715 27.3165 115.715 26.7946V24.7764L115.68 24.7415C115.361 25.6463 114.66 26.0986 113.575 26.0986C112.902 26.0986 112.345 25.8494 111.905 25.3505C111.464 24.8518 111.244 24.1965 111.244 23.3845V19.1655C111.244 18.0753 111.38 17.2635 111.652 16.7298C112.035 15.9643 112.714 15.5815 113.688 15.5815C114.21 15.5815 114.637 15.7151 114.967 15.9817C115.228 16.1674 115.489 16.5327 115.749 17.0778L115.785 15.8164H118.76Z" fill="white"/>
<path d="M124.709 21.4794L123.857 22.1057C123.504 22.3783 123.327 22.7177 123.327 23.1236V24.6372C123.327 25.2403 123.549 25.5419 123.997 25.5419C124.211 25.5419 124.391 25.4549 124.536 25.2808C124.651 25.0665 124.709 24.8229 124.709 24.5502V21.4794ZM124.3 12.5195L125.084 14.9465H123.431L121.491 12.5195H124.3ZM127.667 27.2034H124.857V26.3248C124.324 27.0613 123.588 27.4296 122.648 27.4296C121.639 27.4296 120.943 27.0816 120.56 26.3857C120.287 25.8695 120.152 25.0606 120.152 23.9586C120.152 22.996 120.395 22.2362 120.882 21.6794C121.225 21.2737 121.752 20.917 122.465 20.6095C123.37 20.2559 123.889 20.0181 124.023 19.8963C124.481 19.5889 124.709 19.1684 124.709 18.6349C124.709 18.3334 124.663 18.0955 124.571 17.9215C124.466 17.7533 124.275 17.6693 123.997 17.6693C123.474 17.6693 123.213 17.9361 123.213 18.4696V19.4003H120.369V18.3652C120.369 17.5243 120.705 16.8458 121.378 16.3297C122.056 15.8194 122.918 15.5641 123.962 15.5641C125.318 15.5641 126.276 15.8456 126.833 16.4079C127.389 16.9647 127.667 17.8781 127.667 19.1481V27.2034Z" fill="white"/>
<path d="M129.311 29.265V27.0554H130.007C130.193 27.0554 130.318 27.0324 130.381 26.9858C130.439 26.9395 130.486 26.8264 130.521 26.6465L130.469 26.1682C130.469 25.9651 130.456 25.8406 130.434 25.794L130.329 25.3678L128.451 15.8164H131.59L132.356 23.8194L133.174 15.8164H136.184L134.192 26.2377L134.087 26.8118C134.052 27.038 134.003 27.2033 133.94 27.3077C133.8 27.8179 133.568 28.2327 133.243 28.5516C132.994 28.8009 132.669 28.9808 132.269 29.091C132.089 29.1373 131.869 29.178 131.608 29.2128C131.336 29.2476 131.046 29.265 130.738 29.265H129.311Z" fill="white"/>
<path d="M141.385 27.2033V15.8163H144.344V17.0777C144.615 16.6428 144.938 16.2774 145.309 15.9816C145.721 15.715 146.188 15.5815 146.709 15.5815C147.423 15.5815 147.971 15.8077 148.353 16.26C148.719 16.7123 148.901 17.3011 148.901 18.026V27.2033H145.839V19.4177C145.839 19.0467 145.816 18.8146 145.77 18.7218C145.66 18.4609 145.451 18.3304 145.144 18.3304C144.86 18.3304 144.66 18.4783 144.544 18.774C144.479 18.9771 144.447 19.1916 144.447 19.4177V27.2033H141.385Z" fill="white"/>
<path d="M154.851 24.5501V21.4793L153.999 22.1057C153.646 22.3784 153.468 22.7176 153.468 23.1235V24.6371C153.468 25.2404 153.691 25.5418 154.139 25.5418C154.353 25.5418 154.532 25.4548 154.677 25.2808C154.793 25.0664 154.851 24.8228 154.851 24.5501ZM157.809 19.148V27.2033H154.999V26.3247C154.466 27.0612 153.73 27.4295 152.79 27.4295C151.781 27.4295 151.085 27.0815 150.702 26.3856C150.429 25.8695 150.293 25.0605 150.293 23.9587C150.293 22.9961 150.537 22.2362 151.024 21.6795C151.366 21.2736 151.894 20.9169 152.607 20.6095C153.512 20.2558 154.031 20.018 154.164 19.8962C154.623 19.5888 154.851 19.1685 154.851 18.6348C154.851 18.3333 154.805 18.1014 154.713 17.9389C154.608 17.7708 154.416 17.6867 154.139 17.6867C153.616 17.6867 153.355 17.9477 153.355 18.4695V19.4003H150.511V18.3652C150.511 17.5474 150.847 16.8776 151.52 16.3557C152.198 15.8396 153.06 15.5815 154.104 15.5815C155.46 15.5815 156.417 15.8628 156.974 16.4253C157.531 16.982 157.809 17.8898 157.809 19.148Z" fill="white"/>
<path d="M159.453 29.265V27.0554H160.149C160.335 27.0554 160.46 27.0324 160.523 26.9858C160.581 26.9395 160.628 26.8264 160.663 26.6465L160.611 26.1682C160.611 25.9651 160.598 25.8406 160.575 25.794L160.471 25.3678L158.592 15.8164H161.732L162.498 23.8194L163.316 15.8164H166.326L164.333 26.2377L164.229 26.8118C164.194 27.038 164.145 27.2033 164.082 27.3077C163.942 27.8179 163.71 28.2327 163.385 28.5516C163.135 28.8009 162.811 28.9808 162.411 29.091C162.231 29.1373 162.011 29.178 161.75 29.2128C161.478 29.2476 161.187 29.265 160.88 29.265H159.453Z" fill="white"/>
<path d="M46.4277 36.699V33.8223C46.4277 33.2235 46.6046 32.764 46.9583 32.444C47.2912 32.142 47.7416 31.991 48.3095 31.991C48.8695 31.991 49.3239 32.1472 49.6723 32.4595C50.0156 32.7693 50.1873 33.2235 50.1873 33.8223V34.4069H48.7277V33.6945C48.7277 33.5422 48.7121 33.421 48.6811 33.3306C48.6166 33.1887 48.4927 33.1177 48.3095 33.1177C48.1339 33.1177 48.0113 33.1861 47.9417 33.3228C47.9054 33.4338 47.8875 33.5578 47.8875 33.6945V36.8268C47.8875 37.0178 47.9197 37.1661 47.9842 37.2721C48.0462 37.3624 48.1546 37.4075 48.3095 37.4075C48.4823 37.4075 48.6037 37.3327 48.6734 37.183C48.7094 37.072 48.7277 36.9532 48.7277 36.8268V35.8976H50.1873V36.699C50.1873 37.2591 50.0182 37.7031 49.68 38.0308C49.3419 38.3639 48.885 38.5303 48.3095 38.5303C47.7364 38.5303 47.2809 38.3664 46.9427 38.0386C46.5994 37.7108 46.4277 37.2643 46.4277 36.699Z" fill="white"/>
<path d="M50.8184 38.4296V32.0916H52.1812V33.83C52.3103 33.6286 52.4509 33.4829 52.6032 33.3925C52.7554 33.3022 52.9504 33.2569 53.1879 33.2569C53.5054 33.2569 53.7493 33.3576 53.9197 33.559C54.0823 33.7604 54.1636 34.0223 54.1636 34.3449V38.4296H52.8007V34.9645C52.8007 34.7992 52.7904 34.696 52.7697 34.6546C52.7207 34.5385 52.6277 34.4805 52.4909 34.4805C52.3645 34.4805 52.2754 34.5463 52.2238 34.6779C52.1953 34.7682 52.1812 34.8637 52.1812 34.9645V38.4296H50.8184Z" fill="white"/>
<path d="M56.146 34.6082V37.1829C56.146 37.3145 56.1576 37.4049 56.1808 37.454C56.2221 37.5494 56.3137 37.5971 56.4558 37.5971C56.5821 37.5971 56.6725 37.552 56.7267 37.4616C56.7525 37.3919 56.7654 37.2991 56.7654 37.1829V34.6082C56.7654 34.4741 56.7551 34.3836 56.7346 34.3372C56.6932 34.2417 56.6002 34.1939 56.4558 34.1939C56.3189 34.1939 56.235 34.2314 56.204 34.3062C56.1654 34.3785 56.146 34.479 56.146 34.6082ZM54.7832 37.09V34.7011C54.7832 34.3269 54.8916 34.0119 55.1084 33.7563C55.3949 33.4234 55.8439 33.2568 56.4558 33.2568C57.0442 33.2568 57.4934 33.4234 57.8031 33.7563C58.0199 34.0068 58.1283 34.3217 58.1283 34.7011V37.09C58.1283 37.4642 58.0199 37.7779 57.8031 38.0307C57.5192 38.3638 57.07 38.5302 56.4558 38.5302C55.8697 38.5302 55.4206 38.3638 55.1084 38.0307C54.8916 37.783 54.7832 37.4694 54.7832 37.09Z" fill="white"/>
<path d="M60.7144 37.0901V34.7012C60.7144 34.327 60.8228 34.012 61.0396 33.7566C61.3261 33.4235 61.7753 33.2571 62.387 33.2571C62.9755 33.2571 63.4246 33.4235 63.7344 33.7566C63.9512 34.007 64.0596 34.3218 64.0596 34.7012V35.2394H62.6967V34.6083C62.6967 34.4742 62.6864 34.3838 62.6657 34.3372C62.6244 34.2418 62.5315 34.1941 62.387 34.1941C62.2502 34.1941 62.1663 34.2314 62.1353 34.3064C62.0966 34.3786 62.0772 34.4793 62.0772 34.6083V37.1831C62.0772 37.3147 62.0889 37.4052 62.1121 37.4541C62.1534 37.5496 62.245 37.5973 62.387 37.5973C62.5135 37.5973 62.6038 37.5522 62.658 37.4618C62.6838 37.3921 62.6967 37.2992 62.6967 37.1831V36.2732H64.0596V37.0901C64.0596 37.4643 63.9512 37.7781 63.7344 38.031C63.4504 38.3639 63.0013 38.5304 62.387 38.5304C61.801 38.5304 61.3519 38.3639 61.0396 38.031C60.8228 37.7831 60.7144 37.4696 60.7144 37.0901Z" fill="white"/>
<path d="M68.0244 33.3616V38.4297H66.7081V37.8644C66.5711 38.0865 66.4241 38.2555 66.2667 38.3716C66.1015 38.4774 65.8975 38.5303 65.6549 38.5303C65.3374 38.5303 65.0974 38.4284 64.9348 38.2244C64.7644 38.018 64.6792 37.7586 64.6792 37.4462V33.3616H66.0421V36.8268C66.0421 36.9919 66.0537 37.0953 66.0769 37.1366C66.1234 37.2527 66.215 37.3107 66.3519 37.3107C66.4783 37.3107 66.5687 37.245 66.6229 37.1132C66.6487 37.023 66.6616 36.9274 66.6616 36.8268V33.3616H68.0244Z" fill="white"/>
<path d="M70.0069 37.1829C70.0069 37.3145 70.0184 37.4049 70.0418 37.4539C70.083 37.5495 70.1747 37.5971 70.3167 37.5971C70.4431 37.5971 70.5333 37.5521 70.5876 37.4616C70.6133 37.3919 70.6263 37.299 70.6263 37.1829V34.6082C70.6263 34.474 70.616 34.3836 70.5954 34.3371C70.5412 34.2365 70.4483 34.1862 70.3167 34.1862C70.1952 34.1862 70.1114 34.2261 70.0649 34.3061C70.0262 34.3913 70.0069 34.492 70.0069 34.6082V37.1829ZM69.6275 39.0375H70.9903V39.9744H69.6275V39.0375ZM69.1435 32.9742L69.8016 31.894H70.9206L71.4898 32.9742H70.6651L70.3167 32.3702L69.9217 32.9742H69.1435ZM68.644 34.7011C68.644 34.3166 68.7525 33.9991 68.9693 33.7487C69.2558 33.4157 69.7049 33.2491 70.3167 33.2491C70.9051 33.2491 71.3542 33.4157 71.664 33.7487C71.8808 33.9991 71.9892 34.3166 71.9892 34.7011V37.0899C71.9892 37.4642 71.8808 37.7778 71.664 38.0308C71.38 38.3638 70.9309 38.5302 70.3167 38.5302C69.7307 38.5302 69.2814 38.3638 68.9693 38.0308C68.7525 37.783 68.644 37.4693 68.644 37.0899V34.7011Z" fill="white"/>
<path d="M72.6084 37.0901V34.7012C72.6084 34.327 72.7168 34.012 72.9336 33.7566C73.2201 33.4235 73.6693 33.2571 74.281 33.2571C74.8695 33.2571 75.3186 33.4235 75.6283 33.7566C75.8451 34.007 75.9535 34.3218 75.9535 34.7012V35.2394H74.5908V34.6083C74.5908 34.4742 74.5804 34.3838 74.5597 34.3372C74.5184 34.2418 74.4255 34.1941 74.281 34.1941C74.1442 34.1941 74.0602 34.2314 74.0293 34.3064C73.9906 34.3786 73.9712 34.4793 73.9712 34.6083V37.1831C73.9712 37.3147 73.9828 37.4052 74.006 37.4541C74.0474 37.5496 74.139 37.5973 74.281 37.5973C74.4074 37.5973 74.4978 37.5522 74.552 37.4618C74.5778 37.3921 74.5908 37.2992 74.5908 37.1831V36.2732H75.9535V37.0901C75.9535 37.4643 75.8451 37.7781 75.6283 38.031C75.3444 38.3639 74.8953 38.5304 74.281 38.5304C73.6949 38.5304 73.2459 38.3639 72.9336 38.031C72.7168 37.7831 72.6084 37.4696 72.6084 37.0901Z" fill="white"/>
<path d="M78.4199 37.1676V36.8345H79.6434V37.1444C79.6434 37.3147 79.6768 37.436 79.7441 37.5083C79.7931 37.5677 79.8757 37.5973 79.9918 37.5973C80.1932 37.5973 80.2938 37.4721 80.2938 37.2218C80.2938 37.0334 80.1532 36.823 79.8718 36.5907L79.3802 36.2228C79.042 35.97 78.7994 35.717 78.6522 35.4639C78.5309 35.2215 78.4702 34.9723 78.4702 34.7168C78.4702 34.2573 78.607 33.8985 78.8807 33.6404C79.1517 33.3848 79.522 33.2571 79.9918 33.2571C80.4874 33.2571 80.8656 33.363 81.1262 33.5745C81.3792 33.7914 81.5057 34.1309 81.5057 34.5929V34.86H80.2861V34.5929C80.2861 34.4483 80.2616 34.3451 80.2126 34.2831C80.1609 34.2238 80.0873 34.1941 79.9918 34.1941C79.7905 34.1941 79.6898 34.3077 79.6898 34.5348C79.6898 34.6845 79.7931 34.8536 79.9996 35.042L80.6269 35.5337C80.9261 35.7557 81.1405 35.9544 81.2696 36.13C81.4631 36.388 81.5599 36.6914 81.5599 37.0398C81.5599 37.538 81.423 37.911 81.1495 38.1587C80.8682 38.4065 80.4822 38.5304 79.9918 38.5304C79.4162 38.5304 79.0032 38.4092 78.7529 38.1665C78.5309 37.9496 78.4199 37.6167 78.4199 37.1676Z" fill="white"/>
<path d="M85.0522 30.9844H86.2873L85.4392 32.0607H84.6767L85.0522 30.9844ZM83.422 37.183C83.422 37.3147 83.4343 37.405 83.4571 37.454C83.4988 37.5496 83.5902 37.5973 83.7322 37.5973C83.8588 37.5973 83.9486 37.5522 84.0032 37.4618C84.0286 37.392 84.0416 37.2992 84.0416 37.183V34.6083C84.0416 34.4742 84.0318 34.3837 84.0106 34.3373C83.9567 34.2366 83.8637 34.1863 83.7322 34.1863C83.6106 34.1863 83.5265 34.2263 83.4808 34.3063C83.4416 34.3915 83.422 34.4921 83.422 34.6083V37.183ZM82.5592 32.9744L83.2171 31.8942H84.3363L84.9053 32.9744H84.0808L83.7322 32.3703L83.3371 32.9744H82.5592ZM82.0596 34.7013C82.0596 34.3167 82.1681 33.9992 82.3845 33.7488C82.671 33.4158 83.12 33.2494 83.7322 33.2494C84.3208 33.2494 84.7698 33.4158 85.0792 33.7488C85.2963 33.9992 85.4049 34.3167 85.4049 34.7013V37.0902C85.4049 37.4644 85.2963 37.778 85.0792 38.0309C84.7951 38.364 84.3461 38.5303 83.7322 38.5303C83.1461 38.5303 82.6971 38.364 82.3845 38.0309C82.1681 37.7831 82.0596 37.4696 82.0596 37.0902V34.7013Z" fill="white"/>
<path d="M86.0244 38.4297V33.3616H87.3403V33.9231C87.462 33.7295 87.6048 33.5669 87.7705 33.4351C87.9534 33.3165 88.1616 33.2571 88.3934 33.2571C88.7109 33.2571 88.955 33.3577 89.1256 33.5591C89.2881 33.7605 89.3689 34.0225 89.3689 34.3451V38.4297H88.0064V34.9646C88.0064 34.7994 87.9958 34.6961 87.9754 34.6547C87.9264 34.5386 87.8334 34.4806 87.6971 34.4806C87.5705 34.4806 87.4816 34.5465 87.4293 34.6781C87.4007 34.7683 87.3869 34.8639 87.3869 34.9646V38.4297H86.0244Z" fill="white"/>
<path d="M91.352 34.6624V36.5828C91.352 36.7042 91.3765 36.7957 91.4255 36.8577C91.472 36.9067 91.5406 36.939 91.6304 36.9545C91.7316 36.9545 91.8165 36.8963 91.8859 36.7803C91.9431 36.6487 91.9716 36.4653 91.9716 36.2305V34.914C91.9716 34.6998 91.9365 34.5423 91.8671 34.4417C91.7994 34.3411 91.721 34.2906 91.6304 34.2906C91.5504 34.2906 91.49 34.3114 91.4484 34.3526C91.3839 34.4172 91.352 34.5204 91.352 34.6624ZM93.3341 33.3615V37.8333C93.3341 38.3883 93.2051 38.7793 92.9471 39.0065C92.6835 39.2336 92.2606 39.3472 91.6769 39.3472C91.2565 39.3472 90.9055 39.2761 90.6239 39.1342C90.3063 38.9716 90.1194 38.6838 90.0622 38.2709H91.379C91.379 38.3767 91.4051 38.4554 91.4565 38.507C91.5031 38.5664 91.5765 38.5961 91.6769 38.5961C91.8786 38.5961 91.979 38.4799 91.979 38.2475V37.3494L91.9635 37.3338C91.8214 37.7365 91.5096 37.9379 91.0263 37.9379C90.7275 37.9379 90.4794 37.8269 90.2835 37.6049C90.0867 37.3829 89.9888 37.0913 89.9888 36.7298V34.8521C89.9888 34.3669 90.05 34.0055 90.1708 33.768C90.3414 33.4273 90.6435 33.2568 91.0769 33.2568C91.3096 33.2568 91.499 33.3163 91.6459 33.435C91.7627 33.5177 91.8786 33.6803 91.9945 33.9229L92.01 33.3615H93.3341Z" fill="white"/>
<path d="M96.0214 37.6204V34.3991H95.6802V33.4157H96.0214V32.3162H97.3879V33.4157H97.7283V34.3991H97.3879V37.1132L97.4116 37.3998C97.4263 37.4669 97.4794 37.5004 97.57 37.5004H97.7439V38.5303H97.0859C96.7422 38.5303 96.4908 38.4774 96.3308 38.3716C96.1243 38.2349 96.0214 37.9844 96.0214 37.6204Z" fill="white"/>
<path d="M101.116 30.9844H102.351L101.503 32.0607H100.74L101.116 30.9844ZM99.4863 37.183C99.4863 37.3147 99.4977 37.405 99.5206 37.454C99.5622 37.5496 99.6537 37.5973 99.7957 37.5973C99.9222 37.5973 100.013 37.5522 100.067 37.4618C100.093 37.392 100.106 37.2992 100.106 37.183V34.6083C100.106 34.4742 100.095 34.3837 100.075 34.3373C100.02 34.2366 99.9271 34.1863 99.7957 34.1863C99.6741 34.1863 99.5908 34.2263 99.5443 34.3063C99.5051 34.3915 99.4863 34.4921 99.4863 34.6083V37.183ZM98.6226 32.9744L99.2806 31.8942H100.4L100.969 32.9744H100.144L99.7957 32.3703L99.4006 32.9744H98.6226ZM98.123 34.7013C98.123 34.3167 98.2316 33.9992 98.4488 33.7488C98.7345 33.4158 99.1843 33.2494 99.7957 33.2494C100.384 33.2494 100.833 33.4158 101.143 33.7488C101.36 33.9992 101.468 34.3167 101.468 34.7013V37.0902C101.468 37.4644 101.36 37.778 101.143 38.0309C100.859 38.364 100.41 38.5303 99.7957 38.5303C99.2096 38.5303 98.7606 38.364 98.4488 38.0309C98.2316 37.7831 98.123 37.4696 98.123 37.0902V34.7013Z" fill="white"/>
<path d="M102.189 37.6204V34.3991H101.848V33.4157H102.189V32.3162H103.555V33.4157H103.896V34.3991H103.555V37.1132L103.579 37.3998C103.594 37.4669 103.647 37.5004 103.737 37.5004H103.912V38.5303H103.253C102.91 38.5303 102.659 38.4774 102.499 38.3716C102.292 38.2349 102.189 37.9844 102.189 37.6204Z" fill="white"/>
<path d="M108.24 34.9334C108.24 34.7372 108.219 34.5888 108.178 34.4881C108.119 34.3513 108.024 34.2829 107.891 34.2829C107.817 34.2829 107.753 34.3094 107.7 34.3623C107.647 34.4152 107.62 34.4946 107.62 34.6004V37.1674C107.62 37.2733 107.645 37.3584 107.694 37.4229C107.74 37.4642 107.806 37.49 107.891 37.5003C108.049 37.5003 108.157 37.3661 108.217 37.0976C108.233 36.9867 108.24 36.8459 108.24 36.6757V34.9334ZM108.24 32.4515V32.0837H109.603V32.4515H109.921L109.928 32.8311H109.61L109.603 38.4295H108.24V37.9224C108.049 38.3277 107.726 38.5302 107.272 38.5302C106.955 38.5302 106.707 38.3934 106.529 38.1197C106.348 37.8487 106.258 37.481 106.258 37.0163V34.5423C106.258 33.6802 106.588 33.2491 107.249 33.2491C107.698 33.2491 108.024 33.4375 108.224 33.8144L108.233 32.8465H107.264L107.257 32.4515H108.24Z" fill="white"/>
<path d="M111.585 35.1618H112.205V34.6082C112.205 34.4741 112.194 34.3836 112.174 34.3372C112.12 34.2366 112.027 34.1862 111.895 34.1862C111.774 34.1862 111.69 34.2262 111.643 34.3062C111.605 34.3914 111.585 34.492 111.585 34.6082V35.1618ZM111.206 39.0374H112.569V39.9744H111.206V39.0374ZM110.223 34.7011C110.223 34.3166 110.331 33.9991 110.548 33.7486C110.834 33.4157 111.283 33.2493 111.895 33.2493C112.483 33.2493 112.933 33.4157 113.242 33.7486C113.459 33.9991 113.568 34.3166 113.568 34.7011V36.0988H111.585V37.1829C111.585 37.3146 111.597 37.4049 111.62 37.454C111.661 37.5494 111.753 37.5973 111.895 37.5973C112.021 37.5973 112.112 37.552 112.166 37.4616C112.192 37.392 112.205 37.2991 112.205 37.1829V36.548H113.568V37.09C113.568 37.4642 113.459 37.7779 113.242 38.0307C112.958 38.3638 112.509 38.5302 111.895 38.5302C111.309 38.5302 110.86 38.3638 110.548 38.0307C110.331 37.7831 110.223 37.4694 110.223 37.09V34.7011Z" fill="white"/>
<path d="M115.55 34.9336V36.6759C115.55 36.9521 115.564 37.1314 115.593 37.2141C115.639 37.4051 115.741 37.5005 115.899 37.5005C115.979 37.5005 116.046 37.4747 116.1 37.4231C116.146 37.3741 116.17 37.2889 116.17 37.1676V34.6006C116.17 34.5051 116.141 34.4301 116.084 34.3759C116.046 34.3348 115.984 34.3063 115.899 34.2909C115.783 34.2909 115.693 34.3567 115.632 34.4883C115.577 34.6302 115.55 34.7787 115.55 34.9336ZM114.188 39.3009V33.3616H115.55V33.8224C115.661 33.621 115.795 33.4753 115.95 33.3848C116.097 33.2997 116.294 33.2571 116.541 33.2571C116.859 33.2571 117.106 33.3655 117.281 33.5823C117.448 33.8043 117.532 34.1243 117.532 34.5425V37.0165C117.532 37.4992 117.446 37.8723 117.274 38.1354C117.092 38.3987 116.841 38.5304 116.519 38.5304C116.297 38.5304 116.104 38.48 115.941 38.3794C115.797 38.2814 115.672 38.1291 115.566 37.9225L115.55 39.3009H114.188Z" fill="white"/>
<path d="M120.118 38.4296V32.0916H121.481V33.83C121.61 33.6286 121.751 33.4829 121.903 33.3925C122.056 33.3022 122.25 33.2569 122.488 33.2569C122.806 33.2569 123.05 33.3576 123.22 33.559C123.383 33.7604 123.463 34.0223 123.463 34.3449V38.4296H122.101V34.9645C122.101 34.7992 122.09 34.696 122.07 34.6546C122.021 34.5385 121.928 34.4805 121.791 34.4805C121.664 34.4805 121.575 34.5463 121.524 34.6779C121.495 34.7682 121.481 34.8637 121.481 34.9645V38.4296H120.118Z" fill="white"/>
<path d="M125.447 37.183C125.447 37.3146 125.458 37.405 125.481 37.454C125.523 37.5496 125.614 37.5973 125.756 37.5973C125.883 37.5973 125.973 37.5522 126.027 37.4617C126.053 37.392 126.066 37.2991 126.066 37.183V34.6083C126.066 34.4741 126.056 34.3837 126.035 34.3373C125.981 34.2366 125.888 34.1863 125.756 34.1863C125.635 34.1863 125.551 34.2262 125.505 34.3062C125.466 34.3915 125.447 34.4921 125.447 34.6083V37.183ZM127.123 33.435L126.987 33.4158V32.8079H127.723V33.3306C127.723 33.4519 127.697 33.5332 127.646 33.5745L127.429 33.7488L127.169 33.8919C127.211 33.9204 127.242 33.9424 127.262 33.9578C127.267 33.9732 127.273 33.9888 127.278 34.0043C127.278 34.025 127.292 34.0598 127.32 34.1088C127.393 34.3024 127.429 34.4999 127.429 34.7012V37.09C127.429 37.4644 127.32 37.7779 127.104 38.0309C126.82 38.3639 126.371 38.5303 125.756 38.5303C125.17 38.5303 124.721 38.3639 124.409 38.0309C124.192 37.7831 124.083 37.4694 124.083 37.09V34.7012C124.083 34.3167 124.192 33.9992 124.409 33.7488C124.696 33.4158 125.145 33.2493 125.756 33.2493C126.022 33.2493 126.236 33.2764 126.399 33.3306C126.479 33.3461 126.593 33.4067 126.74 33.5125L126.898 33.6248C126.947 33.6016 126.987 33.5822 127.018 33.5667C127.088 33.5306 127.123 33.4869 127.123 33.435Z" fill="white"/>
<path d="M128.048 38.4297V33.3616H129.365V33.9231C129.486 33.7295 129.63 33.5669 129.794 33.4351C129.978 33.3165 130.185 33.2571 130.418 33.2571C130.736 33.2571 130.979 33.3577 131.15 33.5591C131.312 33.7605 131.394 34.0225 131.394 34.3451V38.4297H130.03V34.9646C130.03 34.7994 130.021 34.6961 129.999 34.6547C129.95 34.5386 129.858 34.4806 129.721 34.4806C129.594 34.4806 129.505 34.5465 129.454 34.6781C129.425 34.7683 129.411 34.8639 129.411 34.9646V38.4297H128.048Z" fill="white"/>
<path d="M40.621 14.6337V25.4806C40.621 26.425 39.8767 27.191 38.9553 27.191H30.3143C28.9681 27.191 27.7245 26.4474 27.0614 25.2417C24.5374 20.653 20.8675 16.8242 16.4521 14.162C15.1108 13.3534 14.271 11.8899 14.271 10.2902V1.78826C14.271 0.845457 15.0206 0.0739746 15.9369 0.0739746H26.4731C27.3945 0.0739746 28.1389 0.843931 28.1389 1.78826V12.9194H38.9553C39.8752 12.9194 40.621 13.687 40.621 14.6337Z" fill="white"/>
<path d="M14.2703 28.7497V37.7101C14.2703 38.9607 15.2841 39.9744 16.5347 39.9744H26.2079C27.4585 39.9744 28.4723 38.9607 28.4723 37.7101V32.2173C28.4723 28.505 24.5657 23.3698 22.6666 21.2173C17.9901 15.9169 13.3102 12.9907 4.11316 12.9907H0.584127C3.66636 18.8138 11.5088 22.0183 16.5839 22.2097C10.8667 22.2813 3.22325 19.3144 0.0297852 13.4385C0.229404 21.6911 5.92791 26.6005 14.2703 27.1927C19.2594 27.5469 24.114 27.4038 25.8127 29.9202C26.6715 31.1926 26.5883 32.3349 26.5883 33.8931L26.5853 37.7101C26.5852 37.9187 26.4162 38.0875 26.2076 38.0875H16.5347C16.3263 38.0875 16.1573 37.9186 16.1573 37.7101V31.378C16.1573 28.9581 14.2703 28.7497 14.2703 28.7497Z" fill="white"/>
</g>
<defs>
<clipPath id="clip0_3_718">
<rect width="166.367" height="40" fill="white"/>
</clipPath>
</defs>
</svg>
