<svg width="250" height="60" viewBox="0 0 250 60" fill="none" xmlns="http://www.w3.org/2000/svg">
<g clip-path="url(#clip0_3_2606)">
<path d="M73.8721 32.3626L69.8662 19.4445H74.942L76.3123 26.6604L77.7998 19.4445H82.7973L78.7914 32.0102V40.805H73.8721V32.3626Z" fill="#006838"/>
<path d="M98.0115 40.805L95.428 31.4231L97.9333 23.7245H102.644L99.9687 31.2144L102.722 40.805H98.0115ZM90.6914 19.4446H95.2843V40.805H90.6914V19.4446Z" fill="#006838"/>
<path d="M104.053 40.805V19.4446H108.646V25.3035C109.081 24.6248 109.555 24.1335 110.069 23.8289C110.582 23.5245 111.238 23.3723 112.039 23.3723C113.109 23.3723 113.931 23.7116 114.505 24.39C115.053 25.0685 115.327 25.9516 115.327 27.0389V40.805H110.734V29.1266C110.734 28.57 110.699 28.2219 110.63 28.0827C110.464 27.6913 110.151 27.4955 109.69 27.4955C109.264 27.4955 108.964 27.7174 108.79 28.161C108.694 28.4657 108.646 28.7874 108.646 29.1266V40.805H104.053Z" fill="#006838"/>
<path d="M122.008 27.9262V36.6034C122.008 37.0469 122.047 37.3516 122.125 37.5166C122.264 37.8387 122.573 37.9996 123.052 37.9996C123.478 37.9996 123.782 37.8475 123.966 37.5428C124.052 37.308 124.095 36.9948 124.095 36.6034V27.9262C124.095 27.4741 124.061 27.1695 123.991 27.0128C123.852 26.691 123.539 26.5299 123.052 26.5299C122.591 26.5299 122.308 26.6563 122.204 26.9084C122.073 27.1521 122.008 27.4914 122.008 27.9262ZM117.415 36.2902V28.2393C117.415 26.9781 117.78 25.9167 118.511 25.0555C119.477 23.9334 120.99 23.3722 123.052 23.3722C125.036 23.3722 126.549 23.9334 127.593 25.0555C128.324 25.8994 128.688 26.9606 128.688 28.2393V36.2902C128.688 37.5517 128.324 38.6086 127.593 39.461C126.636 40.5831 125.121 41.1443 123.052 41.1443C121.077 41.1443 119.563 40.5831 118.511 39.461C117.78 38.6259 117.415 37.5689 117.415 36.2902Z" fill="#006838"/>
<path d="M137.613 36.8252V32.219L136.335 33.1586C135.804 33.5675 135.539 34.0764 135.539 34.6853V36.9556C135.539 37.8606 135.873 38.3127 136.543 38.3127C136.865 38.3127 137.135 38.1823 137.353 37.9212C137.526 37.5995 137.613 37.2342 137.613 36.8252ZM142.05 28.722V40.8049H137.835V39.4871C137.035 40.5918 135.931 41.1442 134.522 41.1442C133.007 41.1442 131.964 40.6222 131.389 39.5784C130.98 38.8043 130.776 37.5907 130.776 35.938C130.776 34.4941 131.142 33.3544 131.872 32.5193C132.386 31.9104 133.177 31.3753 134.247 30.9142C135.604 30.3837 136.383 30.0269 136.582 29.8442C137.271 29.3832 137.613 28.7527 137.613 27.9522C137.613 27.4999 137.544 27.1521 137.405 26.9083C137.249 26.6562 136.961 26.53 136.543 26.53C135.761 26.53 135.369 26.9215 135.369 27.7043V29.1005H131.103V27.5478C131.103 26.3211 131.607 25.3164 132.616 24.5336C133.634 23.7594 134.926 23.3723 136.492 23.3723C138.527 23.3723 139.962 23.7942 140.797 24.6379C141.632 25.4731 142.05 26.8347 142.05 28.722Z" fill="#006838"/>
<path d="M150.818 40.805V19.4446H156.195L160.148 32.0364L160.2 19.4446H164.964V40.805H159.614L155.633 27.5999L155.582 40.805H150.818Z" fill="#006838"/>
<path d="M171.684 28.1088V34.5808C171.684 34.9898 171.766 35.2985 171.931 35.5074C172.088 35.6727 172.318 35.7813 172.623 35.8336C172.962 35.8336 173.249 35.6378 173.484 35.2463C173.675 34.8027 173.772 34.1851 173.772 33.3934V28.957C173.772 28.235 173.654 27.7042 173.419 27.365C173.192 27.0257 172.928 26.8562 172.623 26.8562C172.354 26.8562 172.149 26.9259 172.01 27.0649C171.792 27.2825 171.684 27.6306 171.684 28.1088ZM178.365 23.7245V38.7955C178.365 40.6659 177.929 41.9836 177.059 42.7491C176.172 43.5146 174.745 43.8976 172.78 43.8976C171.362 43.8976 170.178 43.6581 169.23 43.1798C168.16 42.6317 167.529 41.6617 167.338 40.2699H171.774C171.774 40.6268 171.861 40.8918 172.035 41.0658C172.192 41.2659 172.441 41.3661 172.78 41.3661C173.458 41.3661 173.797 40.9746 173.797 40.1918V37.1645L173.745 37.1122C173.266 38.4693 172.214 39.1478 170.587 39.1478C169.578 39.1478 168.743 38.7739 168.081 38.0257C167.42 37.2776 167.091 36.2946 167.091 35.0766V28.7482C167.091 27.1129 167.294 25.8951 167.703 25.0946C168.277 23.9464 169.295 23.3722 170.757 23.3722C171.539 23.3722 172.18 23.5725 172.674 23.9724C173.066 24.251 173.458 24.799 173.849 25.6166L173.901 23.7245H178.365Z" fill="#006838"/>
<path d="M187.288 32.219L186.01 33.1584C185.48 33.5674 185.214 34.0765 185.214 34.6854V36.9557C185.214 37.8605 185.548 38.3128 186.219 38.3128C186.54 38.3128 186.811 38.1823 187.028 37.9212C187.202 37.5996 187.288 37.2343 187.288 36.8253V32.219ZM186.675 18.7792L187.851 22.4196H185.371L182.462 18.7792H186.675ZM191.725 40.805H187.51V39.4871C186.711 40.5919 185.606 41.1443 184.197 41.1443C182.683 41.1443 181.639 40.6223 181.064 39.5784C180.655 38.8042 180.452 37.5908 180.452 35.9379C180.452 34.494 180.817 33.3542 181.548 32.5191C182.061 31.9104 182.852 31.3754 183.922 30.9142C185.279 30.3837 186.058 30.027 186.259 29.8443C186.946 29.3833 187.288 28.7526 187.288 27.9523C187.288 27.5001 187.219 27.1432 187.08 26.8822C186.924 26.6299 186.637 26.5039 186.219 26.5039C185.436 26.5039 185.044 26.9041 185.044 27.7043V29.1005H180.778V27.5477C180.778 26.2865 181.282 25.2687 182.291 24.4944C183.309 23.7291 184.601 23.3461 186.167 23.3461C188.202 23.3461 189.638 23.7683 190.473 24.6118C191.308 25.4469 191.725 26.817 191.725 28.7221V40.805Z" fill="#006838"/>
<path d="M194.191 43.8975V40.5831H195.235C195.513 40.5831 195.701 40.5486 195.796 40.4787C195.883 40.4093 195.953 40.2395 196.006 39.9698L195.927 39.2522C195.927 38.9477 195.909 38.7609 195.875 38.6911L195.718 38.0518L192.9 23.7246H197.61L198.758 35.7291L199.985 23.7246H204.5L201.512 39.3566L201.355 40.2178C201.303 40.5571 201.229 40.8049 201.134 40.9615C200.924 41.7268 200.577 42.3491 200.089 42.8274C199.716 43.2013 199.229 43.4712 198.629 43.6365C198.358 43.706 198.027 43.7671 197.637 43.8192C197.228 43.8714 196.793 43.8975 196.331 43.8975H194.191Z" fill="#006838"/>
<path d="M212.303 40.805V23.7245H216.74V25.6166C217.148 24.9642 217.632 24.4161 218.188 23.9724C218.806 23.5725 219.506 23.3723 220.289 23.3723C221.359 23.3723 222.181 23.7116 222.755 24.39C223.304 25.0685 223.577 25.9516 223.577 27.0389V40.805H218.984V29.1266C218.984 28.57 218.949 28.2219 218.879 28.0827C218.714 27.6913 218.401 27.4955 217.94 27.4955C217.514 27.4955 217.214 27.7174 217.04 28.161C216.944 28.4657 216.896 28.7874 216.896 29.1266V40.805H212.303Z" fill="#006838"/>
<path d="M232.502 36.8252V32.219L231.223 33.1586C230.693 33.5675 230.427 34.0764 230.427 34.6853V36.9556C230.427 37.8606 230.762 38.3127 231.433 38.3127C231.753 38.3127 232.023 38.1823 232.241 37.9212C232.415 37.5995 232.502 37.2342 232.502 36.8252ZM236.938 28.722V40.8049H232.723V39.4871C231.924 40.5918 230.819 41.1442 229.41 41.1442C227.896 41.1442 226.852 40.6222 226.278 39.5784C225.869 38.8043 225.664 37.5907 225.664 35.938C225.664 34.4941 226.03 33.3544 226.76 32.5193C227.274 31.9104 228.065 31.3753 229.135 30.9142C230.492 30.3837 231.271 30.0269 231.471 29.8442C232.159 29.3832 232.502 28.7527 232.502 27.9522C232.502 27.4999 232.432 27.1521 232.293 26.9083C232.137 26.6562 231.849 26.53 231.433 26.53C230.649 26.53 230.257 26.9215 230.257 27.7043V29.1005H225.991V27.5478C225.991 26.3211 226.495 25.3164 227.504 24.5336C228.522 23.7594 229.814 23.3723 231.38 23.3723C233.415 23.3723 234.85 23.7942 235.685 24.6379C236.52 25.4731 236.938 26.8347 236.938 28.722Z" fill="#006838"/>
<path d="M239.404 43.8975V40.5831H240.449C240.727 40.5831 240.914 40.5486 241.009 40.4787C241.096 40.4093 241.166 40.2395 241.219 39.9698L241.14 39.2522C241.14 38.9477 241.122 38.7609 241.088 38.6911L240.931 38.0518L238.112 23.7246H242.823L243.971 35.7291L245.198 23.7246H249.713L246.724 39.3566L246.569 40.2178C246.516 40.5571 246.443 40.8049 246.347 40.9615C246.138 41.7268 245.79 42.3491 245.303 42.8274C244.928 43.2013 244.442 43.4712 243.842 43.6365C243.571 43.706 243.24 43.7671 242.85 43.8192C242.441 43.8714 242.005 43.8975 241.545 43.8975H239.404Z" fill="#006838"/>
<path d="M69.8662 55.0485V50.7334C69.8662 49.8352 70.1316 49.146 70.662 48.666C71.1615 48.2129 71.837 47.9864 72.6888 47.9864C73.5289 47.9864 74.2105 48.2208 74.7331 48.6891C75.248 49.1538 75.5056 49.8352 75.5056 50.7334V51.6103H73.3161V50.5417C73.3161 50.3133 73.2927 50.1315 73.2463 49.9958C73.1496 49.783 72.9637 49.6764 72.6888 49.6764C72.4254 49.6764 72.2416 49.779 72.1372 49.9841C72.0828 50.1507 72.0558 50.3367 72.0558 50.5417V55.2401C72.0558 55.5267 72.1041 55.7492 72.2009 55.9081C72.2939 56.0435 72.4565 56.1111 72.6888 56.1111C72.948 56.1111 73.1302 55.999 73.2348 55.7744C73.2888 55.608 73.3161 55.4298 73.3161 55.2401V53.8463H75.5056V55.0485C75.5056 55.8886 75.2519 56.5546 74.7446 57.0461C74.2374 57.5457 73.5522 57.7954 72.6888 57.7954C71.8292 57.7954 71.1459 57.5495 70.6386 57.0579C70.1237 56.5661 69.8662 55.8963 69.8662 55.0485Z" fill="#00A216"/>
<path d="M76.4521 57.6444V48.1374H78.4964V50.7451C78.69 50.443 78.901 50.2244 79.1294 50.0887C79.3577 49.9534 79.6501 49.8855 80.0065 49.8855C80.4827 49.8855 80.8486 50.0364 81.1041 50.3385C81.348 50.6406 81.47 51.0336 81.47 51.5175V57.6444H79.4257V52.4467C79.4257 52.1989 79.4101 52.044 79.3792 51.9819C79.3057 51.8078 79.1662 51.7207 78.961 51.7207C78.7713 51.7207 78.6377 51.8196 78.5604 52.0169C78.5176 52.1524 78.4964 52.2956 78.4964 52.4467V57.6444H76.4521Z" fill="#00A216"/>
<path d="M84.4436 51.9124V55.7744C84.4436 55.9719 84.461 56.1075 84.4959 56.1811C84.5577 56.3242 84.6952 56.3957 84.9083 56.3957C85.0978 56.3957 85.2334 56.3282 85.3147 56.1925C85.3534 56.088 85.3727 55.9488 85.3727 55.7744V51.9124C85.3727 51.7112 85.3573 51.5755 85.3264 51.5059C85.2643 51.3626 85.1249 51.291 84.9083 51.291C84.7029 51.291 84.5772 51.3472 84.5306 51.4595C84.4727 51.5678 84.4436 51.7187 84.4436 51.9124ZM82.3994 55.6351V52.0517C82.3994 51.4904 82.562 51.018 82.8873 50.6346C83.3169 50.1352 83.9905 49.8854 84.9083 49.8854C85.7909 49.8854 86.4647 50.1352 86.9293 50.6346C87.2544 51.0103 87.417 51.4826 87.417 52.0517V55.6351C87.417 56.1964 87.2544 56.667 86.9293 57.0462C86.5034 57.5458 85.8296 57.7955 84.9083 57.7955C84.0292 57.7955 83.3555 57.5458 82.8873 57.0462C82.562 56.6747 82.3994 56.2042 82.3994 55.6351Z" fill="#00A216"/>
<path d="M91.2964 55.6351V52.0517C91.2964 51.4904 91.459 51.0179 91.7842 50.6348C92.214 50.1352 92.8877 49.8855 93.8054 49.8855C94.6881 49.8855 95.3617 50.1352 95.8264 50.6348C96.1516 51.0103 96.3142 51.4826 96.3142 52.0517V52.859H94.2699V51.9123C94.2699 51.7112 94.2545 51.5755 94.2234 51.5057C94.1614 51.3626 94.0221 51.291 93.8054 51.291C93.6001 51.291 93.4743 51.347 93.4279 51.4595C93.3697 51.5678 93.3407 51.7188 93.3407 51.9123V55.7746C93.3407 55.9719 93.3582 56.1076 93.393 56.1811C93.4549 56.3242 93.5924 56.3959 93.8054 56.3959C93.995 56.3959 94.1306 56.3282 94.2119 56.1926C94.2506 56.088 94.2699 55.9487 94.2699 55.7746V54.4096H96.3142V55.6351C96.3142 56.1964 96.1516 56.667 95.8264 57.0463C95.4004 57.5458 94.7268 57.7955 93.8054 57.7955C92.9263 57.7955 92.2527 57.5458 91.7842 57.0463C91.459 56.6746 91.2964 56.2042 91.2964 55.6351Z" fill="#00A216"/>
<path d="M102.261 50.0423V57.6444H100.287V56.7966C100.081 57.1296 99.8605 57.3831 99.6244 57.5574C99.3766 57.7161 99.0706 57.7954 98.7067 57.7954C98.2305 57.7954 97.8705 57.6426 97.6265 57.3366C97.371 57.0269 97.2432 56.6379 97.2432 56.1693V50.0423H99.2876V55.2401C99.2876 55.4878 99.305 55.6429 99.3397 55.7048C99.4094 55.879 99.5469 55.966 99.7521 55.966C99.9418 55.966 100.077 55.8674 100.159 55.6698C100.197 55.5344 100.217 55.3911 100.217 55.2401V50.0423H102.261Z" fill="#00A216"/>
<path d="M105.235 55.7744C105.235 55.9718 105.252 56.1075 105.287 56.1809C105.349 56.3243 105.486 56.3958 105.699 56.3958C105.889 56.3958 106.024 56.3282 106.106 56.1926C106.144 56.088 106.164 55.9487 106.164 55.7744V51.9124C106.164 51.7111 106.148 51.5755 106.117 51.5058C106.036 51.3549 105.897 51.2794 105.699 51.2794C105.517 51.2794 105.391 51.3393 105.322 51.4593C105.264 51.5871 105.235 51.7381 105.235 51.9124V55.7744ZM104.666 58.5563H106.71V59.9617H104.666V58.5563ZM103.94 49.4614L104.927 47.8412H106.605L107.459 49.4614H106.222L105.699 48.5554L105.107 49.4614H103.94ZM103.19 52.0518C103.19 51.475 103.353 50.9988 103.678 50.6231C104.108 50.1236 104.782 49.8738 105.699 49.8738C106.582 49.8738 107.256 50.1236 107.72 50.6231C108.046 50.9988 108.208 51.475 108.208 52.0518V55.6349C108.208 56.1965 108.046 56.6668 107.72 57.0463C107.294 57.5459 106.621 57.7954 105.699 57.7954C104.82 57.7954 104.147 57.5459 103.678 57.0463C103.353 56.6747 103.19 56.2041 103.19 55.6349V52.0518Z" fill="#00A216"/>
<path d="M109.138 55.6351V52.0517C109.138 51.4904 109.3 51.0179 109.626 50.6348C110.055 50.1352 110.729 49.8855 111.647 49.8855C112.529 49.8855 113.203 50.1352 113.668 50.6348C113.993 51.0103 114.155 51.4826 114.155 52.0517V52.859H112.111V51.9123C112.111 51.7112 112.096 51.5755 112.065 51.5057C112.003 51.3626 111.863 51.291 111.647 51.291C111.441 51.291 111.315 51.347 111.269 51.4595C111.211 51.5678 111.182 51.7188 111.182 51.9123V55.7746C111.182 55.9719 111.199 56.1076 111.234 56.1811C111.296 56.3242 111.434 56.3959 111.647 56.3959C111.836 56.3959 111.972 56.3282 112.053 56.1926C112.092 56.088 112.111 55.9487 112.111 55.7746V54.4096H114.155V55.6351C114.155 56.1964 113.993 56.667 113.668 57.0463C113.242 57.5458 112.568 57.7955 111.647 57.7955C110.767 57.7955 110.094 57.5458 109.626 57.0463C109.3 56.6746 109.138 56.2042 109.138 55.6351Z" fill="#00A216"/>
<path d="M117.854 55.7513V55.2517H119.69V55.7165C119.69 55.9719 119.74 56.1539 119.841 56.2623C119.914 56.3514 120.038 56.3959 120.212 56.3959C120.514 56.3959 120.665 56.208 120.665 55.8326C120.665 55.55 120.454 55.2343 120.032 54.8859L119.295 54.3341C118.788 53.9548 118.424 53.5754 118.203 53.1958C118.021 52.8321 117.93 52.4584 117.93 52.075C117.93 51.3859 118.135 50.8477 118.546 50.4605C118.952 50.0771 119.508 49.8855 120.212 49.8855C120.956 49.8855 121.523 50.0443 121.914 50.3617C122.293 50.6869 122.483 51.1962 122.483 51.8893V52.2899H120.654V51.8893C120.654 51.6724 120.617 51.5175 120.543 51.4246C120.466 51.3355 120.356 51.291 120.212 51.291C119.91 51.291 119.759 51.4614 119.759 51.8021C119.759 52.0266 119.914 52.2802 120.224 52.5628L121.165 53.3005C121.614 53.6334 121.935 53.9315 122.129 54.1948C122.419 54.5819 122.564 55.0369 122.564 55.5595C122.564 56.3068 122.359 56.8663 121.949 57.2379C121.527 57.6097 120.948 57.7955 120.212 57.7955C119.349 57.7955 118.729 57.6136 118.354 57.2496C118.021 56.9244 117.854 56.4249 117.854 55.7513Z" fill="#00A216"/>
<path d="M127.803 46.4765H129.656L128.383 48.091H127.24L127.803 46.4765ZM125.358 55.7744C125.358 55.9719 125.376 56.1075 125.41 56.181C125.473 56.3243 125.61 56.3959 125.823 56.3959C126.013 56.3959 126.147 56.3283 126.229 56.1926C126.267 56.088 126.287 55.9488 126.287 55.7744V51.9124C126.287 51.7112 126.272 51.5755 126.241 51.5058C126.16 51.3549 126.02 51.2794 125.823 51.2794C125.64 51.2794 125.514 51.3394 125.446 51.4594C125.387 51.5872 125.358 51.7381 125.358 51.9124V55.7744ZM124.063 49.4616L125.05 47.8412H126.729L127.583 49.4616H126.346L125.823 48.5554L125.23 49.4616H124.063ZM123.314 52.0518C123.314 51.475 123.477 50.9988 123.801 50.6231C124.231 50.1236 124.905 49.874 125.823 49.874C126.706 49.874 127.379 50.1236 127.843 50.6231C128.169 50.9988 128.332 51.475 128.332 52.0518V55.6352C128.332 56.1965 128.169 56.6669 127.843 57.0463C127.417 57.5459 126.744 57.7954 125.823 57.7954C124.944 57.7954 124.27 57.5459 123.801 57.0463C123.477 56.6747 123.314 56.2043 123.314 55.6352V52.0518Z" fill="#00A216"/>
<path d="M129.261 57.6445V50.0424H131.235V50.8846C131.418 50.5941 131.632 50.3502 131.88 50.1526C132.155 49.9746 132.467 49.8855 132.815 49.8855C133.291 49.8855 133.657 50.0365 133.913 50.3386C134.157 50.6406 134.278 51.0336 134.278 51.5175V57.6445H132.234V52.4468C132.234 52.1989 132.218 52.044 132.188 51.9819C132.114 51.8078 131.975 51.7208 131.77 51.7208C131.58 51.7208 131.447 51.8196 131.369 52.017C131.326 52.1524 131.305 52.2957 131.305 52.4468V57.6445H129.261Z" fill="#00A216"/>
<path d="M137.252 51.9937V54.8743C137.252 55.0564 137.289 55.1937 137.363 55.2866C137.432 55.3602 137.535 55.4086 137.67 55.4318C137.822 55.4318 137.949 55.3446 138.053 55.1705C138.139 54.9731 138.182 54.6981 138.182 54.3458V52.3711C138.182 52.0498 138.129 51.8136 138.025 51.6627C137.923 51.5117 137.806 51.4361 137.67 51.4361C137.55 51.4361 137.459 51.4672 137.397 51.529C137.3 51.626 137.252 51.7808 137.252 51.9937ZM140.225 50.0424V56.7501C140.225 57.5825 140.032 58.169 139.645 58.5099C139.25 58.8505 138.615 59.0209 137.74 59.0209C137.109 59.0209 136.583 58.9143 136.16 58.7015C135.684 58.4575 135.403 58.0258 135.318 57.4064H137.293C137.293 57.5651 137.332 57.6832 137.409 57.7607C137.479 57.8497 137.589 57.8943 137.74 57.8943C138.042 57.8943 138.193 57.72 138.193 57.3714V56.0242L138.17 56.0008C137.957 56.6049 137.489 56.907 136.764 56.907C136.316 56.907 135.943 56.7404 135.65 56.4075C135.354 56.0744 135.208 55.6371 135.208 55.0948V52.2783C135.208 51.5504 135.299 51.0084 135.481 50.6522C135.736 50.141 136.19 49.8854 136.84 49.8854C137.189 49.8854 137.473 49.9745 137.693 50.1527C137.868 50.2766 138.042 50.5205 138.216 50.8844L138.239 50.0424H140.225Z" fill="#00A216"/>
<path d="M144.256 56.4306V51.5987H143.745V50.1235H144.256V48.4742H146.306V50.1235H146.817V51.5987H146.306V55.6698L146.342 56.0998C146.364 56.2003 146.443 56.2506 146.579 56.2506H146.84V57.7954H145.853C145.338 57.7954 144.961 57.7161 144.721 57.5574C144.411 57.3523 144.256 56.9766 144.256 56.4306Z" fill="#00A216"/>
<path d="M151.899 46.4765H153.751L152.48 48.091H151.335L151.899 46.4765ZM149.455 55.7744C149.455 55.9719 149.472 56.1075 149.506 56.181C149.568 56.3243 149.706 56.3959 149.919 56.3959C150.108 56.3959 150.244 56.3283 150.325 56.1926C150.364 56.088 150.384 55.9488 150.384 55.7744V51.9124C150.384 51.7112 150.368 51.5755 150.337 51.5058C150.255 51.3549 150.116 51.2794 149.919 51.2794C149.736 51.2794 149.611 51.3394 149.542 51.4594C149.483 51.5872 149.455 51.7381 149.455 51.9124V55.7744ZM148.159 49.4616L149.146 47.8412H150.825L151.678 49.4616H150.442L149.919 48.5554L149.326 49.4616H148.159ZM147.41 52.0518C147.41 51.475 147.573 50.9988 147.898 50.6231C148.327 50.1236 149.002 49.874 149.919 49.874C150.801 49.874 151.475 50.1236 151.94 50.6231C152.265 50.9988 152.428 51.475 152.428 52.0518V55.6352C152.428 56.1965 152.265 56.6669 151.94 57.0463C151.514 57.5459 150.841 57.7954 149.919 57.7954C149.039 57.7954 148.366 57.5459 147.898 57.0463C147.573 56.6747 147.41 56.2043 147.41 55.6352V52.0518Z" fill="#00A216"/>
<path d="M153.508 56.4306V51.5987H152.997V50.1235H153.508V48.4742H155.557V50.1235H156.069V51.5987H155.557V55.6698L155.593 56.0998C155.616 56.2003 155.696 56.2506 155.831 56.2506H156.093V57.7954H155.104C154.59 57.7954 154.213 57.7161 153.973 57.5574C153.663 57.3523 153.508 56.9766 153.508 56.4306Z" fill="#00A216"/>
<path d="M162.584 52.4002C162.584 52.1059 162.554 51.8833 162.491 51.7322C162.403 51.527 162.26 51.4245 162.062 51.4245C161.95 51.4245 161.853 51.4642 161.775 51.5435C161.695 51.6229 161.655 51.742 161.655 51.9007V55.7512C161.655 55.9101 161.692 56.0378 161.765 56.1345C161.835 56.1965 161.934 56.2352 162.062 56.2506C162.298 56.2506 162.461 56.0493 162.55 55.6465C162.573 55.4801 162.584 55.269 162.584 55.0136V52.4002ZM162.584 48.6774V48.1257H164.629V48.6774H165.106L165.117 49.2468H164.64L164.629 57.6444H162.584V56.8836C162.298 57.4916 161.814 57.7954 161.132 57.7954C160.657 57.7954 160.285 57.5902 160.018 57.1797C159.747 56.7732 159.611 56.2216 159.611 55.5246V51.8135C159.611 50.5205 160.107 49.8738 161.098 49.8738C161.771 49.8738 162.26 50.1564 162.561 50.7218L162.573 49.2699H161.121L161.11 48.6774H162.584Z" fill="#00A216"/>
<path d="M167.603 52.7428H168.532V51.9124C168.532 51.7112 168.516 51.5755 168.486 51.5058C168.405 51.355 168.265 51.2793 168.068 51.2793C167.886 51.2793 167.759 51.3394 167.69 51.4594C167.632 51.5871 167.603 51.7381 167.603 51.9124V52.7428ZM167.033 58.5562H169.078V59.9617H167.033V58.5562ZM165.559 52.0517C165.559 51.475 165.722 50.9987 166.046 50.623C166.476 50.1236 167.15 49.874 168.068 49.874C168.95 49.874 169.624 50.1236 170.088 50.623C170.414 50.9987 170.577 51.475 170.577 52.0517V54.1483H167.603V55.7744C167.603 55.9719 167.62 56.1075 167.655 56.1811C167.717 56.3242 167.855 56.396 168.068 56.396C168.257 56.396 168.393 56.3281 168.475 56.1925C168.513 56.088 168.532 55.9488 168.532 55.7744V54.822H170.577V55.6351C170.577 56.1964 170.414 56.6669 170.088 57.0462C169.662 57.5458 168.989 57.7954 168.068 57.7954C167.189 57.7954 166.515 57.5458 166.046 57.0462C165.722 56.6747 165.559 56.2042 165.559 55.6351V52.0517Z" fill="#00A216"/>
<path d="M173.55 52.4002V55.0137C173.55 55.428 173.571 55.697 173.614 55.821C173.683 56.1075 173.837 56.2506 174.073 56.2506C174.193 56.2506 174.293 56.2119 174.374 56.1346C174.444 56.061 174.479 55.9333 174.479 55.7513V51.9008C174.479 51.7575 174.437 51.6451 174.351 51.5638C174.293 51.5021 174.2 51.4593 174.073 51.4362C173.899 51.4362 173.764 51.5349 173.672 51.7323C173.59 51.9452 173.55 52.1679 173.55 52.4002ZM171.506 58.9513V50.0424H173.55V50.7335C173.717 50.4314 173.916 50.2128 174.149 50.0771C174.369 49.9494 174.666 49.8855 175.037 49.8855C175.513 49.8855 175.883 50.0481 176.146 50.3733C176.397 50.7064 176.523 51.1864 176.523 51.8136V55.5246C176.523 56.2487 176.393 56.8083 176.135 57.203C175.863 57.5979 175.486 57.7955 175.002 57.7955C174.669 57.7955 174.38 57.7199 174.137 57.569C173.92 57.422 173.732 57.1935 173.573 56.8837L173.55 58.9513H171.506Z" fill="#00A216"/>
<path d="M180.402 57.6444V48.1374H182.447V50.7451C182.641 50.443 182.851 50.2244 183.08 50.0887C183.309 49.9534 183.601 49.8855 183.957 49.8855C184.433 49.8855 184.799 50.0364 185.055 50.3385C185.299 50.6406 185.42 51.0336 185.42 51.5175V57.6444H183.377V52.4467C183.377 52.1989 183.361 52.044 183.33 51.9819C183.257 51.8078 183.117 51.7207 182.911 51.7207C182.722 51.7207 182.588 51.8196 182.511 52.0169C182.468 52.1524 182.447 52.2956 182.447 52.4467V57.6444H180.402Z" fill="#00A216"/>
<path d="M188.394 55.7744C188.394 55.9718 188.412 56.1074 188.446 56.1809C188.508 56.3243 188.646 56.3958 188.859 56.3958C189.048 56.3958 189.184 56.3282 189.265 56.1925C189.304 56.088 189.324 55.9486 189.324 55.7744V51.9123C189.324 51.711 189.308 51.5755 189.277 51.5058C189.195 51.3548 189.056 51.2794 188.859 51.2794C188.676 51.2794 188.551 51.3393 188.481 51.4593C188.423 51.5871 188.394 51.7381 188.394 51.9123V55.7744ZM190.908 50.1525L190.705 50.1236V49.2117H191.81V49.9958C191.81 50.1779 191.77 50.2998 191.693 50.3616L191.368 50.6231L190.978 50.8379C191.041 50.8805 191.087 50.9135 191.118 50.9367C191.125 50.9598 191.134 50.9831 191.141 51.0063C191.141 51.0374 191.162 51.0896 191.205 51.1631C191.314 51.4535 191.368 51.7497 191.368 52.0518V55.6349C191.368 56.1965 191.205 56.6668 190.88 57.0463C190.454 57.5459 189.781 57.7954 188.859 57.7954C187.979 57.7954 187.306 57.5459 186.838 57.0463C186.512 56.6746 186.35 56.2041 186.35 55.6349V52.0518C186.35 51.475 186.512 50.9988 186.838 50.6231C187.268 50.1236 187.941 49.8738 188.859 49.8738C189.258 49.8738 189.579 49.9145 189.822 49.9958C189.942 50.0192 190.114 50.11 190.334 50.2687L190.572 50.4372C190.645 50.4023 190.705 50.3733 190.752 50.35C190.857 50.2959 190.908 50.2303 190.908 50.1525Z" fill="#00A216"/>
<path d="M192.297 57.6445V50.0424H194.272V50.8846C194.453 50.5941 194.669 50.3502 194.916 50.1526C195.192 49.9746 195.503 49.8855 195.852 49.8855C196.328 49.8855 196.693 50.0365 196.949 50.3386C197.192 50.6406 197.315 51.0336 197.315 51.5175V57.6445H195.27V52.4468C195.27 52.1989 195.255 52.044 195.223 51.9819C195.15 51.8078 195.012 51.7208 194.806 51.7208C194.616 51.7208 194.483 51.8196 194.405 52.017C194.363 52.1524 194.341 52.2957 194.341 52.4468V57.6445H192.297Z" fill="#00A216"/>
<path d="M61.1564 21.9506V38.2209C61.1564 39.6375 60.0399 40.7865 58.6578 40.7865H45.6964C43.6769 40.7865 41.8117 39.6712 40.8169 37.8626C37.0309 30.9795 31.5261 25.2364 24.9029 21.2431C22.8911 20.0301 21.6313 17.8348 21.6313 15.4353V2.68239C21.6313 1.26819 22.7558 0.110962 24.1302 0.110962H39.9345C41.3166 0.110962 42.4332 1.2659 42.4332 2.68239V19.3791H58.6578C60.0377 19.3791 61.1564 20.5305 61.1564 21.9506Z" fill="#006838"/>
<path d="M21.6298 43.1246V56.5652C21.6298 58.441 23.1505 59.9615 25.0264 59.9615H39.5363C41.4122 59.9615 42.9329 58.441 42.9329 56.5652V48.3258C42.9329 42.7575 37.0729 35.0547 34.2243 31.8259C27.2096 23.8753 20.1897 19.486 6.39411 19.486H1.10056C5.72391 28.2207 17.4876 33.0274 25.1003 33.3144C16.5244 33.4218 5.05924 28.9715 0.269043 20.1577C0.568472 32.5366 9.11623 39.9007 21.6298 40.789C29.1134 41.3203 36.3954 41.1056 38.9435 44.8802C40.2316 46.7888 40.1067 48.5023 40.1067 50.8396L40.1023 56.5652C40.1022 56.878 39.8486 57.1312 39.5358 57.1312H25.0264C24.7138 57.1312 24.4603 56.8778 24.4603 56.5652V47.0669C24.4603 43.437 21.6298 43.1246 21.6298 43.1246Z" fill="#00A216"/>
</g>
<defs>
<clipPath id="clip0_3_2606">
<rect width="249.551" height="60" fill="white" transform="translate(0.224609)"/>
</clipPath>
</defs>
</svg>
