<svg width="10" height="16" viewBox="0 0 10 16" fill="none" xmlns="http://www.w3.org/2000/svg">
<path d="M0.352268 0.352185C0.126765 0.577756 8.39233e-05 0.883656 8.39233e-05 1.20262C8.39233e-05 1.52157 0.126765 1.82747 0.352268 2.05305L6.30648 8.00726L0.352268 13.9615C0.133155 14.1883 0.0119126 14.4922 0.0146532 14.8076C0.0173939 15.123 0.143898 15.4247 0.36692 15.6477C0.589943 15.8707 0.891639 15.9972 1.20703 16C1.52242 16.0027 1.82626 15.8815 2.05313 15.6623L8.85778 8.85769C9.08328 8.63212 9.20996 8.32622 9.20996 8.00726C9.20996 7.6883 9.08328 7.3824 8.85778 7.15683L2.05313 0.352185C1.82756 0.126681 1.52166 0 1.2027 0C0.88374 0 0.57784 0.126681 0.352268 0.352185V0.352185Z" fill="white"/>
</svg>
