<svg width="17" height="18" viewBox="0 0 17 18" fill="none" xmlns="http://www.w3.org/2000/svg">
<path d="M15.75 9.3105L7.9395 1.5H1.5V0H8.25C8.4489 4.24781e-05 8.63963 0.079088 8.78025 0.21975L16.8105 8.25L15.75 9.3105Z" fill="#096639"/>
<path d="M14.3407 10.2802L7.28025 3.21975C7.13963 3.07909 6.9489 3.00004 6.75 3H0.75C0.551088 3 0.360322 3.07902 0.21967 3.21967C0.0790176 3.36032 0 3.55109 0 3.75V9.75C4.24781e-05 9.94889 0.079088 10.1396 0.21975 10.2802L7.28025 17.3407C7.48919 17.5497 7.73724 17.7155 8.01025 17.8286C8.28326 17.9417 8.57587 17.9999 8.87138 17.9999C9.16688 17.9999 9.45949 17.9417 9.7325 17.8286C10.0055 17.7155 10.2536 17.5497 10.4625 17.3407L14.3407 13.4625C14.5497 13.2536 14.7155 13.0055 14.8286 12.7325C14.9417 12.4595 14.9999 12.1669 14.9999 11.8714C14.9999 11.5759 14.9417 11.2833 14.8286 11.0102C14.7155 10.7372 14.5497 10.4892 14.3407 10.2802ZM4.5 9C4.20333 9 3.91332 8.91203 3.66664 8.7472C3.41997 8.58238 3.22771 8.34811 3.11418 8.07402C3.00065 7.79993 2.97094 7.49834 3.02882 7.20736C3.0867 6.91639 3.22956 6.64912 3.43934 6.43934C3.64912 6.22956 3.91639 6.0867 4.20736 6.02882C4.49834 5.97094 4.79994 6.00065 5.07403 6.11418C5.34811 6.22771 5.58238 6.41997 5.7472 6.66664C5.91203 6.91332 6 7.20333 6 7.5C6 7.89782 5.84196 8.27936 5.56066 8.56066C5.27936 8.84196 4.89782 9 4.5 9Z" fill="#096639"/>
</svg>
