<svg width="16" height="13" viewBox="0 0 16 13" fill="none" xmlns="http://www.w3.org/2000/svg">
<path d="M15.75 1.88462C15.1594 2.16154 14.5688 2.25385 13.8797 2.34615C14.5688 1.97692 15.0609 1.42308 15.2578 0.684615C14.6672 1.05385 13.9781 1.23846 13.1906 1.42308C12.6 0.869231 11.7141 0.5 10.8281 0.5C9.15469 0.5 7.67813 1.88462 7.67813 3.54615C7.67813 3.82308 7.67813 4.00769 7.77656 4.19231C5.11875 4.1 2.65781 2.9 1.08281 1.05385C0.7875 1.51538 0.689062 1.97692 0.689062 2.62308C0.689062 3.63846 1.27969 4.56154 2.16563 5.11538C1.67344 5.11538 1.18125 4.93077 0.689062 4.74615C0.689062 6.22308 1.77187 7.42308 3.24844 7.7C2.95312 7.79231 2.65781 7.79231 2.3625 7.79231C2.16563 7.79231 1.96875 7.79231 1.77187 7.7C2.16562 8.9 3.34688 9.82308 4.82344 9.82308C3.74063 10.6538 2.3625 11.1154 0.7875 11.1154H0C1.47656 11.9462 3.15 12.5 4.92188 12.5C10.8281 12.5 14.0766 7.88462 14.0766 3.91538V3.54615C14.7656 3.08462 15.3562 2.53077 15.75 1.88462Z" fill="white"/>
</svg>
