<svg width="16" height="12" viewBox="0 0 16 12" fill="none" xmlns="http://www.w3.org/2000/svg">
<path d="M13.4375 3.03321C13.4375 3.13432 13.4375 3.33653 13.4375 3.43764C13.4375 5.56089 12.6041 7.68414 11.0416 9.30185C9.47914 11.1218 7.08331 12.0317 4.68749 11.9306C3.02083 11.9306 1.35416 11.4251 0 10.6162C0.208333 10.6162 0.520832 10.6162 0.729165 10.6162C2.08333 10.6162 3.43749 10.2118 4.47916 9.30185C3.85416 9.30185 3.22916 9.09964 2.70833 8.69521C2.18749 8.29078 1.87499 7.78525 1.66666 7.1786C1.87499 7.1786 2.08333 7.1786 2.29166 7.1786C2.60416 7.1786 2.81249 7.1786 3.12499 7.0775C2.39583 6.97639 1.77083 6.67307 1.25 6.06643C0.833331 5.56089 0.520832 4.95425 0.624998 4.2465C1.04166 4.44871 1.45833 4.54982 1.97916 4.54982C1.14583 4.04428 0.520832 3.13432 0.624998 2.12325C0.624998 1.61771 0.833331 1.11218 1.04166 0.606643C2.60416 2.52768 4.89582 3.63986 7.39581 3.74096C7.29165 3.43764 7.29165 3.23543 7.29165 3.03321C7.29165 1.4155 8.64581 0 10.4166 0C11.25 0 12.0833 0.303321 12.7083 0.909964C13.4375 0.808857 14.0625 0.606643 14.6875 0.202214C14.4791 0.909964 13.9583 1.51661 13.3333 1.81993C13.9583 1.71882 14.4791 1.61771 15.1041 1.31439C14.5833 2.02214 14.0625 2.52768 13.4375 3.03321Z" fill="white"/>
</svg>
