<svg width="21" height="17" viewBox="0 0 21 17" fill="none" xmlns="http://www.w3.org/2000/svg">
<path d="M20.5906 0.967783C19.7333 1.55883 18.7841 2.01088 17.7795 2.30653C17.2403 1.7006 16.5238 1.27114 15.7267 1.07622C14.9297 0.881298 14.0906 0.930329 13.323 1.21668C12.5554 1.50303 11.8963 2.01288 11.4348 2.67729C10.9734 3.34169 10.7318 4.12858 10.7428 4.93153V5.80653C9.16953 5.8464 7.61057 5.50537 6.20478 4.8138C4.799 4.12223 3.59002 3.10159 2.68553 1.84278C2.68553 1.84278 -0.89549 9.71778 7.1618 13.2178C5.31805 14.441 3.12166 15.0543 0.89502 14.9678C8.95231 19.3428 18.8001 14.9678 18.8001 4.90528C18.7993 4.66155 18.7753 4.41843 18.7285 4.17903C19.6422 3.29834 20.287 2.18641 20.5906 0.967783Z" fill="#55ACEE"/>
</svg>
